name rise30.3154peak39.0474fall46.5389.mot
datacolumns 19
datarows 29
range 1.43666300000000 1.48333500000000
endheader
time	ground_force1_vx	ground_force1_vy	ground_force1_vz	ground_force1_px	ground_force1_py	ground_force1_pz	ground_force2_vx	ground_force2_vy	ground_force2_vz	ground_force2_px	ground_force2_py	ground_force2_pz	ground_torque1_x	ground_torque1_y	ground_torque1_z	ground_torque2_x	ground_torque2_y	ground_torque2_z	
1.43666300000000	-5.82292600000000	45.93197500000000	-7.33350400000000	0.26291900000000	0.00000000000000	0.10124900000000	-52.41826900000000	765.83441900000003	-61.54842900000000	0.11224300000000	0.00000000000000	-0.10526200000000	0.00000000000000	-4.37937500000000	0.00000000000000	0.00000000000000	-23.19746700000000	0.00000000000000	
1.43833300000000	-6.32544600000000	54.28000400000000	-8.21151200000000	0.27218200000000	0.00000000000000	0.10177000000000	-52.88154900000000	762.56976699999996	-61.32303300000000	0.11149500000000	0.00000000000000	-0.10524000000000	0.00000000000000	-5.00802000000000	0.00000000000000	0.00000000000000	-23.12335300000000	0.00000000000000	
1.43999600000000	-6.69937400000000	62.84375100000000	-8.99510000000000	0.28033600000000	0.00000000000000	0.10222700000000	-53.34719800000000	759.17816500000004	-61.06805700000000	0.11076100000000	0.00000000000000	-0.10521500000000	0.00000000000000	-5.59475800000000	0.00000000000000	0.00000000000000	-23.04751100000000	0.00000000000000	
1.44166700000000	-6.92786300000000	71.51939800000000	-9.66411400000000	0.28758600000000	0.00000000000000	0.10263100000000	-53.81482300000000	755.65825199999995	-60.78302300000000	0.11004100000000	0.00000000000000	-0.10518400000000	0.00000000000000	-6.12495700000000	0.00000000000000	0.00000000000000	-22.96994500000000	0.00000000000000	
1.44333300000000	-7.00092900000000	80.22459200000000	-10.20515100000000	0.29409200000000	0.00000000000000	0.10299400000000	-54.28396900000000	752.00865099999999	-60.46749400000000	0.10933600000000	0.00000000000000	-0.10514900000000	0.00000000000000	-6.58809500000000	0.00000000000000	0.00000000000000	-22.89065000000000	0.00000000000000	
1.44500000000000	-6.91532600000000	88.90136900000000	-10.61163100000000	0.29997500000000	0.00000000000000	0.10332100000000	-54.75412100000000	748.22797800000001	-60.12108000000000	0.10864700000000	0.00000000000000	-0.10510900000000	0.00000000000000	-6.97795800000000	0.00000000000000	0.00000000000000	-22.80960600000000	0.00000000000000	
1.44666300000000	-6.67388700000000	97.51658100000000	-10.88329900000000	0.30533100000000	0.00000000000000	0.10361900000000	-55.22469600000000	744.31484300000000	-59.74343800000000	0.10797500000000	0.00000000000000	-0.10506400000000	0.00000000000000	-7.29245900000000	0.00000000000000	0.00000000000000	-22.72678100000000	0.00000000000000	
1.44832800000000	-6.28449000000000	106.06019800000000	-11.02530200000000	0.31023800000000	0.00000000000000	0.10389300000000	-55.69505400000000	740.26785900000004	-59.33427700000000	0.10732000000000	0.00000000000000	-0.10501300000000	0.00000000000000	-7.53315600000000	0.00000000000000	0.00000000000000	-22.64213000000000	0.00000000000000	
1.45000200000000	-5.75879500000000	114.54201000000000	-11.04697600000000	0.31475800000000	0.00000000000000	0.10414500000000	-56.16449000000000	736.08564300000000	-58.89335600000000	0.10668400000000	0.00000000000000	-0.10495700000000	0.00000000000000	-7.70454200000000	0.00000000000000	0.00000000000000	-22.55559700000000	0.00000000000000	
1.45167000000000	-5.11088200000000	122.98726800000000	-10.96050900000000	0.31894200000000	0.00000000000000	0.10438000000000	-56.63223700000000	731.76682900000003	-58.42049200000000	0.10606700000000	0.00000000000000	-0.10489600000000	0.00000000000000	-7.81322400000000	0.00000000000000	0.00000000000000	-22.46710900000000	0.00000000000000	
1.45333300000000	-4.35594200000000	131.43181899999999	-10.77960200000000	0.32283100000000	0.00000000000000	0.10460000000000	-57.09746700000000	727.31006800000000	-57.91555700000000	0.10547000000000	0.00000000000000	-0.10482900000000	0.00000000000000	-7.86707200000000	0.00000000000000	0.00000000000000	-22.37658500000000	0.00000000000000	
1.45499700000000	-3.50910700000000	139.91721999999999	-10.51824100000000	0.32646000000000	0.00000000000000	0.10480600000000	-57.55929400000000	722.71403899999996	-57.37848300000000	0.10489300000000	0.00000000000000	-0.10475500000000	0.00000000000000	-7.87440700000000	0.00000000000000	0.00000000000000	-22.28392600000000	0.00000000000000	
1.45666600000000	-2.58447600000000	148.48622000000000	-10.18966200000000	0.32985900000000	0.00000000000000	0.10500000000000	-58.01677300000000	717.97745599999996	-56.80926400000000	0.10433800000000	0.00000000000000	-0.10467600000000	0.00000000000000	-7.84330100000000	0.00000000000000	0.00000000000000	-22.18902500000000	0.00000000000000	
1.45833400000000	-1.59441100000000	157.17890199999999	-9.80554700000000	0.33305300000000	0.00000000000000	0.10518500000000	-58.46890100000000	713.09907899999996	-56.20795600000000	0.10380500000000	0.00000000000000	-0.10459000000000	0.00000000000000	-7.78101100000000	0.00000000000000	0.00000000000000	-22.09175800000000	0.00000000000000	
1.46000100000000	-0.54907700000000	166.02967799999999	-9.37548600000000	0.33606100000000	0.00000000000000	0.10536000000000	-58.91462300000000	708.07772000000000	-55.57468100000000	0.10329500000000	0.00000000000000	-0.10449800000000	0.00000000000000	-7.69357800000000	0.00000000000000	0.00000000000000	-21.99199100000000	0.00000000000000	
1.46166100000000	0.54375900000000	175.06520499999999	-8.90669600000000	0.33890200000000	0.00000000000000	0.10552700000000	-59.35282900000000	702.91225399999996	-54.90962700000000	0.10280800000000	0.00000000000000	-0.10440000000000	0.00000000000000	-7.58559400000000	0.00000000000000	0.00000000000000	-21.88957900000000	0.00000000000000	
1.46332700000000	1.67871300000000	184.30321599999999	-8.40395900000000	0.34159200000000	0.00000000000000	0.10568800000000	-59.78236100000000	697.60163200000000	-54.21305200000000	0.10234600000000	0.00000000000000	-0.10429500000000	0.00000000000000	-7.46011900000000	0.00000000000000	0.00000000000000	-21.78436300000000	0.00000000000000	
1.46499600000000	2.85258100000000	193.75219400000000	-7.86977000000000	0.34414200000000	0.00000000000000	0.10584200000000	-60.20201500000000	692.14489100000003	-53.48528200000000	0.10190800000000	0.00000000000000	-0.10418300000000	0.00000000000000	-7.31872800000000	0.00000000000000	0.00000000000000	-21.67617500000000	0.00000000000000	
1.46666300000000	4.06401800000000	203.41176100000001	-7.30461900000000	0.34656400000000	0.00000000000000	0.10599000000000	-60.61054000000000	686.54116599999998	-52.72671200000000	0.10149600000000	0.00000000000000	-0.10406500000000	0.00000000000000	-7.16167100000000	0.00000000000000	0.00000000000000	-21.56483600000000	0.00000000000000	
1.46833600000000	5.31311500000000	213.27360700000000	-6.70738300000000	0.34886800000000	0.00000000000000	0.10613300000000	-61.00664800000000	680.78970400000003	-51.93781000000000	0.10111000000000	0.00000000000000	-0.10393900000000	0.00000000000000	-6.98810400000000	0.00000000000000	0.00000000000000	-21.45015800000000	0.00000000000000	
1.47000200000000	6.60096000000000	223.32281499999999	-6.07576200000000	0.35106200000000	0.00000000000000	0.10627200000000	-61.38901300000000	674.88987599999996	-51.11911400000000	0.10075000000000	0.00000000000000	-0.10380600000000	0.00000000000000	-6.79635600000000	0.00000000000000	0.00000000000000	-21.33194400000000	0.00000000000000	
1.47166200000000	7.92918200000000	233.53938900000000	-5.40673600000000	0.35315300000000	0.00000000000000	0.10640700000000	-61.75627700000000	668.84119299999998	-50.27123400000000	0.10041700000000	0.00000000000000	-0.10366700000000	0.00000000000000	-6.58422100000000	0.00000000000000	0.00000000000000	-21.20998700000000	0.00000000000000	
1.47333400000000	9.29954500000000	243.89984500000000	-4.69698200000000	0.35514800000000	0.00000000000000	0.10653800000000	-62.10705100000000	662.64331600000003	-49.39485200000000	0.10011200000000	0.00000000000000	-0.10352000000000	0.00000000000000	-6.34923800000000	0.00000000000000	0.00000000000000	-21.08407600000000	0.00000000000000	
1.47499500000000	10.71359700000000	254.37873800000000	-3.94325400000000	0.35705200000000	0.00000000000000	0.10666600000000	-62.43992400000000	656.29607199999998	-48.49072100000000	0.09983500000000	0.00000000000000	-0.10336500000000	0.00000000000000	-6.08893800000000	0.00000000000000	0.00000000000000	-20.95399300000000	0.00000000000000	
1.47666200000000	12.17239300000000	264.95002799999997	-3.14268500000000	0.35886900000000	0.00000000000000	0.10679000000000	-62.75346300000000	649.79946800000005	-47.55966400000000	0.09958500000000	0.00000000000000	-0.10320400000000	0.00000000000000	-5.80105600000000	0.00000000000000	0.00000000000000	-20.81951200000000	0.00000000000000	
1.47832900000000	13.67629800000000	275.58821100000000	-2.29301200000000	0.36060400000000	0.00000000000000	0.10691200000000	-63.04622100000000	643.15369699999997	-46.60257300000000	0.09936400000000	0.00000000000000	-0.10303400000000	0.00000000000000	-5.48368600000000	0.00000000000000	0.00000000000000	-20.68040700000000	0.00000000000000	
1.48000100000000	15.22487400000000	286.26918599999999	-1.39272700000000	0.36226000000000	0.00000000000000	0.10703100000000	-63.31673800000000	636.35915399999999	-45.62041200000000	0.09917200000000	0.00000000000000	-0.10285800000000	0.00000000000000	-5.13539300000000	0.00000000000000	0.00000000000000	-20.53644600000000	0.00000000000000	
1.48166100000000	16.81683900000000	296.97084999999998	-0.44114000000000	0.36384000000000	0.00000000000000	0.10714800000000	-63.56355000000000	629.41644399999996	-44.61421000000000	0.09900900000000	0.00000000000000	-0.10267300000000	0.00000000000000	-4.75526800000000	0.00000000000000	0.00000000000000	-20.38739700000000	0.00000000000000	
1.48333500000000	18.45008600000000	307.67342900000000	0.56160900000000	0.36534700000000	0.00000000000000	0.10726300000000	-63.78518900000000	622.32638499999996	-43.58506400000000	0.09887400000000	0.00000000000000	-0.10248200000000	0.00000000000000	-4.34294300000000	0.00000000000000	0.00000000000000	-20.23302700000000	0.00000000000000	
